<svg xmlns="http://www.w3.org/2000/svg"><defs><style>.cls-1{fill:#1e8ae6;fill-rule:evenodd}</style><style>.cls-1{fill:#1e8ae6;fill-rule:evenodd}</style><style>.cls-1{fill:#fff;fill-rule:evenodd}</style><style>.cls-1{fill:#fff;fill-rule:evenodd}</style></defs><symbol id="arrow-left" viewBox="0 0 13 24.97"><path id="arrow" class="cls-1" d="M13.467 7481.72l9.808 10.73a1.506 1.506 0 0 0 2.259 0 1.864 1.864 0 0 0 0-2.47l-8.679-9.5 8.678-9.5a1.864 1.864 0 0 0 0-2.47 1.491 1.491 0 0 0-2.259 0l-9.808 10.73a1.833 1.833 0 0 0-.468 1.24 1.853 1.853 0 0 0 .469 1.24z" transform="translate(-13 -7468)"/></symbol><symbol id="arrow-right" viewBox="0 0 13 24.97"><path id="arrow" class="cls-1" d="M304.533 7481.72l-9.809 10.73a1.506 1.506 0 0 1-2.259 0 1.866 1.866 0 0 1 0-2.47l8.679-9.5-8.678-9.5a1.864 1.864 0 0 1 0-2.47 1.491 1.491 0 0 1 2.259 0l9.808 10.73a1.831 1.831 0 0 1 .467 1.24 1.855 1.855 0 0 1-.467 1.24z" transform="translate(-292 -7468)"/></symbol><symbol id="quote-2" viewBox="0 0 40.031 37"><path id="_" data-name="&#x201C;" class="cls-1" d="M278.888 4078.38a49.009 49.009 0 0 1-7.055 10.29 6.643 6.643 0 0 0-1.772 2.79q-.42 2.55 1.837 2.55 2.022 0 5.4-3.92 9.249-10.605 10.924-20.72.9-5.43-1.2-8.9a6.845 6.845 0 0 0-6.259-3.48 9.417 9.417 0 0 0-6.34 2.4 9.757 9.757 0 0 0-3.361 5.94 7.081 7.081 0 0 0 .982 5.18 4.7 4.7 0 0 0 3.82 2.4h2.377q2.24.12 1.9 2.16a11.956 11.956 0 0 1-1.261 3.31zm19.96 2.92a49.877 49.877 0 0 1-5.5 7.37 6.632 6.632 0 0 0-1.772 2.79q-.42 2.55 1.837 2.55 2.022 0 5.4-3.92 9.249-10.605 10.923-20.72.9-5.43-1.195-8.9a6.846 6.846 0 0 0-6.259-3.48 9.417 9.417 0 0 0-6.34 2.4 9.752 9.752 0 0 0-3.361 5.94 7.081 7.081 0 0 0 .982 5.18 4.783 4.783 0 0 0 3.939 2.4h2.377q2.24.12 1.9 2.16c-.221 1.36-1.2 3.43-2.931 6.23z" transform="translate(-270 -4057)"/></symbol><symbol id="quote" viewBox="0 0 40.031 37"><path id="_" data-name="&#x201C;" class="cls-1" d="M70.112 3995.62a49 49 0 0 1 7.055-10.29 6.655 6.655 0 0 0 1.771-2.8c.28-1.69-.332-2.54-1.837-2.54q-2.022 0-5.4 3.92-9.248 10.605-10.923 20.71c-.6 3.63-.2 6.59 1.2 8.91a6.836 6.836 0 0 0 6.258 3.47 9.416 9.416 0 0 0 6.34-2.4 9.761 9.761 0 0 0 3.361-5.93 7.086 7.086 0 0 0-.982-5.18 4.7 4.7 0 0 0-3.82-2.4h-2.384c-1.493-.09-2.127-.81-1.9-2.17a12.039 12.039 0 0 1 1.261-3.3zm-19.96-2.92a49.336 49.336 0 0 1 5.5-7.37 6.65 6.65 0 0 0 1.771-2.8c.281-1.69-.332-2.54-1.837-2.54q-2.022 0-5.4 3.92-9.249 10.605-10.924 20.71c-.6 3.63-.2 6.59 1.2 8.91a6.837 6.837 0 0 0 6.259 3.47 9.417 9.417 0 0 0 6.34-2.4 9.762 9.762 0 0 0 3.361-5.93 7.086 7.086 0 0 0-.982-5.18 4.783 4.783 0 0 0-3.939-2.4h-2.382c-1.493-.09-2.127-.81-1.9-2.17s1.202-3.43 2.933-6.22z" transform="translate(-38.969 -3980)"/></symbol></svg>