<svg xmlns="http://www.w3.org/2000/svg" width="40.031" height="37" viewBox="0 0 40.031 37"><defs><style>.cls-1{fill:#fff;fill-rule:evenodd}</style></defs><path id="_" data-name="“" class="cls-1" d="M70.112 3995.62a49 49 0 0 1 7.055-10.29 6.655 6.655 0 0 0 1.771-2.8c.28-1.69-.332-2.54-1.837-2.54q-2.022 0-5.4 3.92-9.248 10.605-10.923 20.71c-.6 3.63-.2 6.59 1.2 8.91a6.836 6.836 0 0 0 6.258 3.47 9.416 9.416 0 0 0 6.34-2.4 9.761 9.761 0 0 0 3.361-5.93 7.086 7.086 0 0 0-.982-5.18 4.7 4.7 0 0 0-3.82-2.4h-2.384c-1.493-.09-2.127-.81-1.9-2.17a12.039 12.039 0 0 1 1.261-3.3zm-19.96-2.92a49.336 49.336 0 0 1 5.5-7.37 6.65 6.65 0 0 0 1.771-2.8c.281-1.69-.332-2.54-1.837-2.54q-2.022 0-5.4 3.92-9.249 10.605-10.924 20.71c-.6 3.63-.2 6.59 1.2 8.91a6.837 6.837 0 0 0 6.259 3.47 9.417 9.417 0 0 0 6.34-2.4 9.762 9.762 0 0 0 3.361-5.93 7.086 7.086 0 0 0-.982-5.18 4.783 4.783 0 0 0-3.939-2.4h-2.382c-1.493-.09-2.127-.81-1.9-2.17s1.202-3.43 2.933-6.22z" transform="translate(-38.969 -3980)"/></svg>