<svg xmlns="http://www.w3.org/2000/svg" width="40.031" height="37" viewBox="0 0 40.031 37"><defs><style>.cls-1{fill:#fff;fill-rule:evenodd}</style></defs><path id="_" data-name="“" class="cls-1" d="M278.888 4078.38a49.009 49.009 0 0 1-7.055 10.29 6.643 6.643 0 0 0-1.772 2.79q-.42 2.55 1.837 2.55 2.022 0 5.4-3.92 9.249-10.605 10.924-20.72.9-5.43-1.2-8.9a6.845 6.845 0 0 0-6.259-3.48 9.417 9.417 0 0 0-6.34 2.4 9.757 9.757 0 0 0-3.361 5.94 7.081 7.081 0 0 0 .982 5.18 4.7 4.7 0 0 0 3.82 2.4h2.377q2.24.12 1.9 2.16a11.956 11.956 0 0 1-1.261 3.31zm19.96 2.92a49.877 49.877 0 0 1-5.5 7.37 6.632 6.632 0 0 0-1.772 2.79q-.42 2.55 1.837 2.55 2.022 0 5.4-3.92 9.249-10.605 10.923-20.72.9-5.43-1.195-8.9a6.846 6.846 0 0 0-6.259-3.48 9.417 9.417 0 0 0-6.34 2.4 9.752 9.752 0 0 0-3.361 5.94 7.081 7.081 0 0 0 .982 5.18 4.783 4.783 0 0 0 3.939 2.4h2.377q2.24.12 1.9 2.16c-.221 1.36-1.2 3.43-2.931 6.23z" transform="translate(-270 -4057)"/></svg>